<svg width="524" height="499" viewBox="0 0 524 499" fill="none" xmlns="http://www.w3.org/2000/svg">
<g id="picture">
<g id="web">
<rect id="Rectangle 3" x="153.968" width="369.758" height="499" fill="#101F27"/>
<path id="Vector" d="M523.568 316.368H153.432V406.759H523.568V316.368Z" fill="#FBFDFE"/>
<path id="Vector_2" d="M499.86 92.42L485.081 98.7227L498.161 89.9097C496.036 86.9197 493.647 84.0879 491.02 81.4416L426.923 95.7966L484.82 75.8962C482.175 73.7929 479.365 71.8632 476.413 70.122L378.745 84.2971C368.375 95.9815 362.723 110.495 362.715 125.456H509.731C509.725 113.853 506.32 102.457 499.86 92.42Z" fill="#6BA9C3"/>
<path id="Vector_3" d="M435.241 125.456L385.199 58.4809C385.199 58.4809 460.983 82.3196 452.382 125.456H435.241Z" fill="#FBFDFE"/>
<path id="Vector_4" d="M437.205 125.456L487.246 58.4809C487.246 58.4809 411.462 82.3196 420.063 125.456H437.205Z" fill="#C31F1F"/>
<path id="Vector_5" d="M524 498.708H153V0H524V498.708ZM154.73 497.15H522.27V1.55846H154.73V497.15Z" fill="#FBFDFF"/>
<path id="Vector_6" d="M523.568 11.8297H154.297V13.3881H523.568V11.8297Z" fill="#FBFDFF"/>
<path id="Vector_7" d="M163.81 9.3508C165.721 9.3508 167.269 7.9553 167.269 6.23387C167.269 4.51244 165.721 3.11694 163.81 3.11694C161.9 3.11694 160.351 4.51244 160.351 6.23387C160.351 7.9553 161.9 9.3508 163.81 9.3508Z" fill="#C31F1F"/>
<path id="Vector_8" d="M173.323 9.3508C175.233 9.3508 176.782 7.9553 176.782 6.23387C176.782 4.51244 175.233 3.11694 173.323 3.11694C171.412 3.11694 169.864 4.51244 169.864 6.23387C169.864 7.9553 171.412 9.3508 173.323 9.3508Z" fill="#C31F1F"/>
<path id="Vector_9" d="M182.836 9.3508C184.746 9.3508 186.295 7.9553 186.295 6.23387C186.295 4.51244 184.746 3.11694 182.836 3.11694C180.925 3.11694 179.376 4.51244 179.376 6.23387C179.376 7.9553 180.925 9.3508 182.836 9.3508Z" fill="#C31F1F"/>
<path id="Vector_10" d="M182.836 22.5977H167.269V30.39H182.836V22.5977Z" fill="#C31F1F"/>
<path id="Vector_11" d="M243.372 84.1571H167.269V91.9494H243.372V84.1571Z" fill="#C31F1F"/>
<path id="Vector_12" d="M437.952 30.3901L514.055 30.3901V22.5978L437.952 22.5978V30.3901Z" fill="#6BA9C3"/>
<path id="Vector_13" d="M295.26 97.404H167.269V102.079H295.26V97.404Z" fill="#6BA9C3"/>
<path id="Vector_14" d="M288.342 107.534H167.269V112.209H288.342V107.534Z" fill="#6BA9C3"/>
<path id="Vector_15" d="M255.479 117.664H167.269V122.339H255.479V117.664Z" fill="#6BA9C3"/>
<path id="Vector_16" d="M246.831 256.367H196.672V261.043H246.831V256.367Z" fill="#6BA9C3"/>
<path id="Vector_17" d="M244.12 266.497H196.672V271.173H244.12V266.497Z" fill="#6BA9C3"/>
<path id="Vector_18" d="M231.241 276.627H196.672V281.303H231.241V276.627Z" fill="#6BA9C3"/>
<path id="Vector_19" d="M363.579 256.367H313.421V261.043H363.579V256.367Z" fill="#6BA9C3"/>
<path id="Vector_20" d="M360.868 266.497H313.421V271.173H360.868V266.497Z" fill="#6BA9C3"/>
<path id="Vector_21" d="M347.989 276.627H313.421V281.303H347.989V276.627Z" fill="#6BA9C3"/>
<path id="Vector_22" d="M484.652 256.367H434.493V261.043H484.652V256.367Z" fill="#6BA9C3"/>
<path id="Vector_23" d="M481.94 266.497H434.493V271.173H481.94V266.497Z" fill="#6BA9C3"/>
<path id="Vector_24" d="M469.062 276.627H434.493V281.303H469.062V276.627Z" fill="#6BA9C3"/>
<path id="Vector_25" d="M350.607 433.253H274.505V441.045H350.607V433.253Z" fill="#C31F1F"/>
<path id="Vector_26" d="M402.495 446.5H274.505V451.175H402.495V446.5Z" fill="#6BA9C3"/>
<path id="Vector_27" d="M395.577 456.63H274.505V461.305H395.577V456.63Z" fill="#6BA9C3"/>
<path id="Vector_28" d="M362.715 466.76H274.505V471.435H362.715V466.76Z" fill="#6BA9C3"/>
<path id="Vector_29" opacity="0.3" d="M491.138 168.314H190.186V169.873H491.138V168.314Z" fill="#C31F1F"/>
<path id="Vector_30" opacity="0.3" d="M253.749 195.587H189.754V247.017H253.749V195.587Z" fill="#C31F1F"/>
<path id="Vector_31" d="M370.498 195.587H306.502V247.017H370.498V195.587Z" fill="#FBFDFE"/>
<path id="Vector_32" d="M491.57 195.587H427.575V247.017H491.57V195.587Z" fill="#FBFDFE"/>
<path id="Vector_33" d="M330.162 246.8L329.318 246.786C329.336 245.943 329.864 226.088 338.539 220.6L339.023 221.223C330.698 226.489 330.166 246.598 330.162 246.8Z" fill="#C31F1F"/>
<path id="Vector_34" d="M343.002 220.349C345.334 220.349 347.224 218.646 347.224 216.545C347.224 214.445 345.334 212.742 343.002 212.742C340.671 212.742 338.781 214.445 338.781 216.545C338.781 218.646 340.671 220.349 343.002 220.349Z" fill="#C31F1F"/>
<path id="Vector_35" d="M342.149 229.976C339.953 230.597 337.615 230.688 335.367 230.24C336.794 228.603 338.716 227.373 340.901 226.698C343.086 226.022 345.441 225.931 347.682 226.434C346.214 228.031 344.306 229.252 342.149 229.976Z" fill="#C31F1F"/>
<path id="Vector_36" d="M451.234 246.8L450.39 246.786C450.408 245.943 450.936 226.088 459.611 220.6L460.096 221.223C451.771 226.489 451.239 246.598 451.234 246.8Z" fill="#C31F1F"/>
<path id="Vector_37" d="M464.075 220.349C466.406 220.349 468.296 218.646 468.296 216.545C468.296 214.445 466.406 212.742 464.075 212.742C461.743 212.742 459.853 214.445 459.853 216.545C459.853 218.646 461.743 220.349 464.075 220.349Z" fill="#C31F1F"/>
<path id="Vector_38" d="M463.221 229.976C461.025 230.597 458.687 230.688 456.44 230.24C457.867 228.603 459.788 227.373 461.973 226.698C464.158 226.022 466.513 225.931 468.754 226.434C467.286 228.031 465.378 229.252 463.221 229.976V229.976Z" fill="#C31F1F"/>
<path id="Vector_39" d="M243.372 345.2H167.269V352.992H243.372V345.2Z" fill="#C31F1F"/>
<path id="Vector_40" d="M295.26 358.447H167.269V363.122H295.26V358.447Z" fill="#6BA9C3"/>
<path id="Vector_41" d="M288.342 368.577H167.269V373.252H288.342V368.577Z" fill="#6BA9C3"/>
<path id="Vector_42" d="M255.479 378.707H167.269V383.382H255.479V378.707Z" fill="#6BA9C3"/>
<path id="Vector_43" opacity="0.4" d="M448.98 380.302C463.905 380.302 476.003 369.401 476.003 355.953C476.003 342.505 463.905 331.604 448.98 331.604C434.056 331.604 421.957 342.505 421.957 355.953C421.957 369.401 434.056 380.302 448.98 380.302Z" fill="#C31F1F"/>
<path id="Vector_44" opacity="0.4" d="M398.967 384.663C409.437 384.663 417.924 377.016 417.924 367.582C417.924 358.149 409.437 350.502 398.967 350.502C388.498 350.502 380.011 358.149 380.011 367.582C380.011 377.016 388.498 384.663 398.967 384.663Z" fill="#C31F1F"/>
<path id="Vector_45" d="M245.463 178.067L184.163 161.507L167.772 210.77L229.072 227.33L245.463 178.067Z" fill="#FBFDFE"/>
<path id="Vector_46" d="M190.505 216.685L189.701 216.453C189.986 215.65 196.82 196.768 206.878 193.756L207.144 194.478C197.492 197.369 190.573 216.492 190.505 216.685Z" fill="#C31F1F"/>
<path id="Vector_47" d="M212.446 194.831C214.778 194.831 216.668 193.128 216.668 191.027C216.668 188.927 214.778 187.224 212.446 187.224C210.115 187.224 208.225 188.927 208.225 191.027C208.225 193.128 210.115 194.831 212.446 194.831Z" fill="#C31F1F"/>
<path id="Vector_48" d="M207.348 203.671C205.047 203.698 202.778 203.181 200.769 202.169C202.657 200.971 204.89 200.29 207.198 200.208C209.506 200.127 211.791 200.648 213.778 201.71C211.862 202.86 209.645 203.536 207.348 203.671V203.671Z" fill="#C31F1F"/>
</g>
<g id="bot2">
<path id="Vector_49" d="M87.8918 443.99C121.336 443.99 148.448 421.093 148.448 392.849C148.448 364.605 121.336 341.708 87.8918 341.708C54.4478 341.708 27.3361 364.605 27.3361 392.849C27.3361 421.093 54.4478 443.99 87.8918 443.99Z" fill="#2A709F"/>
<path id="Vector_50" d="M78.6935 432.985H60.2969V460.821H78.6935V432.985Z" fill="#2A709F"/>
<path id="Vector_51" d="M115.487 432.985H97.0902V460.821H115.487V432.985Z" fill="#2A709F"/>
<path id="Vector_52" d="M75.6274 466C84.0943 466 90.958 463.826 90.958 461.145C90.958 458.463 84.0943 456.29 75.6274 456.29C67.1606 456.29 60.2969 458.463 60.2969 461.145C60.2969 463.826 67.1606 466 75.6274 466Z" fill="#2A709F"/>
<path id="Vector_53" d="M112.421 465.353C120.888 465.353 127.751 463.179 127.751 460.497C127.751 457.816 120.888 455.642 112.421 455.642C103.954 455.642 97.0902 457.816 97.0902 460.497C97.0902 463.179 103.954 465.353 112.421 465.353Z" fill="#2A709F"/>
<path id="Vector_54" d="M89.4249 397.38C100.855 397.38 110.121 389.555 110.121 379.902C110.121 370.249 100.855 362.423 89.4249 362.423C77.9947 362.423 68.7287 370.249 68.7287 379.902C68.7287 389.555 77.9947 397.38 89.4249 397.38Z" fill="white"/>
<path id="Vector_55" d="M89.4249 377.96C93.235 377.96 96.3236 375.351 96.3236 372.133C96.3236 368.916 93.235 366.307 89.4249 366.307C85.6148 366.307 82.5261 368.916 82.5261 372.133C82.5261 375.351 85.6148 377.96 89.4249 377.96Z" fill="#2A709F"/>
<path id="Vector_56" d="M29.1508 345.289C24.2613 326.796 39.8913 308.109 64.0616 303.551C88.2319 298.993 111.79 310.29 116.679 328.783C121.569 347.277 105.55 354.098 81.3799 358.655C57.2097 363.213 34.0404 363.783 29.1508 345.289Z" fill="#C31F1F"/>
<path id="Vector_57" d="M142.332 339.643C149.379 326.836 151.232 314.939 146.471 313.071C141.711 311.202 132.139 320.07 125.092 332.877C118.045 345.684 116.192 357.581 120.953 359.449C125.714 361.317 135.285 352.45 142.332 339.643Z" fill="#2A709F"/>
<path id="Vector_58" d="M36.7304 374.396C41.3701 372.322 38.7895 360.523 30.9665 348.041C23.1435 335.56 13.0405 327.123 8.40085 329.197C3.76119 331.271 6.34179 343.07 14.1648 355.552C21.9878 368.033 32.0907 376.47 36.7304 374.396Z" fill="#2A709F"/>
<path id="Vector_59" d="M87.9321 279.6L69.8297 276.832L63.9583 304.223L82.0607 306.991L87.9321 279.6Z" fill="#2A709F"/>
<path id="Vector_60" d="M105.449 292.631C138.893 292.631 166.005 269.734 166.005 241.49C166.005 213.245 138.893 190.349 105.449 190.349C72.005 190.349 44.8933 213.245 44.8933 241.49C44.8933 269.734 72.005 292.631 105.449 292.631Z" fill="#2A709F"/>
<path id="Vector_61" d="M124.137 285.135L106.034 282.368L100.163 309.759L118.266 312.526L124.137 285.135Z" fill="#2A709F"/>
<path id="Vector_62" d="M124.07 322.953C126.122 320.907 122.548 315.502 116.087 310.88C109.626 306.259 102.724 304.172 100.672 306.218C98.6205 308.264 102.195 313.669 108.656 318.29C115.117 322.912 122.018 324.999 124.07 322.953Z" fill="#2A709F"/>
<path id="Vector_63" d="M88.6195 317.533C90.6714 315.487 87.0971 310.082 80.636 305.461C74.1749 300.84 67.2737 298.752 65.2218 300.798C63.1698 302.845 66.7441 308.25 73.2052 312.871C79.6663 317.492 86.5675 319.579 88.6195 317.533Z" fill="#2A709F"/>
<path id="Vector_64" d="M109.689 246.459C121.119 246.459 130.385 238.633 130.385 228.98C130.385 219.327 121.119 211.502 109.689 211.502C98.2583 211.502 88.9923 219.327 88.9923 228.98C88.9923 238.633 98.2583 246.459 109.689 246.459Z" fill="white"/>
<path id="Vector_65" d="M118.195 228.541C122.005 228.541 125.093 225.933 125.093 222.715C125.093 219.497 122.005 216.889 118.195 216.889C114.385 216.889 111.296 219.497 111.296 222.715C111.296 225.933 114.385 228.541 118.195 228.541Z" fill="#2A709F"/>
<path id="Vector_66" d="M57.6791 185.854C56.7685 166.92 76.09 150.884 100.835 150.035C125.58 149.186 146.378 163.846 147.289 182.78C148.2 201.713 130.999 206.015 106.254 206.863C81.5085 207.712 58.5897 204.787 57.6791 185.854Z" fill="#C31F1F"/>
<path id="Vector_67" d="M163.487 239.997C179.787 236.842 192.049 230.781 190.876 226.46C189.703 222.138 175.539 221.193 159.24 224.348C142.941 227.503 130.678 233.564 131.851 237.886C133.024 242.207 147.188 243.152 163.487 239.997Z" fill="#2A709F"/>
<path id="Vector_68" d="M44.6189 256.691C60.9182 253.536 73.1806 247.475 72.0078 243.154C70.8349 238.833 56.6709 237.887 40.3716 241.043C24.0723 244.198 11.8099 250.259 12.9828 254.58C14.1557 258.901 28.3197 259.847 44.6189 256.691Z" fill="#2A709F"/>
<path id="Vector_69" d="M88.8174 261.644C88.1656 264.685 88.9708 267.82 91.0561 270.359C93.1413 272.899 96.3356 274.635 99.9364 275.185C103.537 275.736 107.25 275.056 110.257 273.295C113.264 271.534 115.319 268.836 115.971 265.795C117.328 259.463 111.531 257.222 104.033 256.075C96.5345 254.929 90.1748 255.311 88.8174 261.644Z" fill="white"/>
</g>
</g>
</svg>
