<svg width="70" height="65" viewBox="0 0 70 65" fill="none" xmlns="http://www.w3.org/2000/svg">
<g id="pricechecker">
<g id="price">
<path id="Vector" d="M25.5836 4.87433C14.6062 4.87433 5.69696 13.3474 5.69696 23.7874C5.69696 34.2275 14.6062 42.7006 25.5836 42.7006C36.561 42.7006 45.4702 34.2275 45.4702 23.7874C45.4702 13.3474 36.561 4.87433 25.5836 4.87433ZM28.3876 35.3055V38.9179H23.0779V35.2677C19.6772 34.5868 16.7937 32.5064 16.5749 28.8372H20.4727C20.6716 30.8231 22.1034 32.374 25.7427 32.374C29.6404 32.374 30.5154 30.5205 30.5154 29.3668C30.5154 27.797 29.6404 26.3218 25.2057 25.3194C20.2738 24.1846 16.8931 22.2555 16.8931 18.3783C16.8931 15.1252 19.6574 13.007 23.0779 12.3072V8.65695H28.3876V12.345C32.0865 13.1961 33.9359 15.8628 34.0553 18.7566H30.1575C30.0581 16.6572 28.8847 15.2198 25.7427 15.2198C22.7597 15.2198 20.9699 16.5059 20.9699 18.3216C20.9699 19.9103 22.2625 20.9505 26.2796 21.934C30.2967 22.9174 34.5922 24.5629 34.5922 29.329C34.5723 32.7901 31.8478 34.6814 28.3876 35.3055Z" fill="#263238"/>
<path id="Vector_2" d="M50.0286 40.8805H46.8668L45.7461 39.8771C49.6684 35.6404 52.0297 30.1401 52.0297 24.1567C52.0297 10.8148 40.3831 0 26.0149 0C11.6467 0 0 10.8148 0 24.1567C0 37.4986 11.6467 48.3133 26.0149 48.3133C32.4585 48.3133 38.3819 46.1206 42.9445 42.4786L44.0252 43.5192V46.4551L64.0366 65L70 59.4626L50.0286 40.8805V40.8805ZM26.0149 40.8805C16.0492 40.8805 8.00457 33.4105 8.00457 24.1567C8.00457 14.9028 16.0492 7.43282 26.0149 7.43282C35.9806 7.43282 44.0252 14.9028 44.0252 24.1567C44.0252 33.4105 35.9806 40.8805 26.0149 40.8805Z" fill="#2A709F"/>
</g>
</g>
</svg>
